<svg width="47" height="47" viewBox="0 0 47 47" fill="none" xmlns="http://www.w3.org/2000/svg">
<rect width="47" height="47" rx="5" fill="#0F0F0F"/>
<path d="M19 28H15L18.47 23.34C18.6831 23.1057 18.8375 22.8242 18.9206 22.5186C19.0036 22.213 19.0129 21.892 18.9477 21.5821C18.8824 21.2722 18.7445 20.9823 18.5453 20.7361C18.3461 20.4899 18.0913 20.2945 17.8019 20.1661C17.5124 20.0376 17.1966 19.9797 16.8804 19.9972C16.5642 20.0146 16.2566 20.1069 15.9831 20.2664C15.7095 20.426 15.4777 20.6482 15.3068 20.9148C15.1359 21.1814 15.0307 21.4848 15 21.8M22 28V20H26M22 24H25M29 28V22C29 21.4696 29.2107 20.9609 29.5858 20.5858C29.9609 20.2107 30.4696 20 31 20C31.5304 20 32.0391 20.2107 32.4142 20.5858C32.7893 20.9609 33 21.4696 33 22V28M29 25H33" stroke="#FFD900" stroke-width="2" stroke-linecap="round" stroke-linejoin="round"/>
</svg>
