<svg width="20" height="20" viewBox="0 0 20 20" fill="none" xmlns="http://www.w3.org/2000/svg">
<path d="M14.1667 7.50008V5.83341C14.1667 5.39139 13.9911 4.96746 13.6785 4.6549C13.366 4.34234 12.942 4.16675 12.5 4.16675H4.16667C3.72464 4.16675 3.30072 4.34234 2.98816 4.6549C2.67559 4.96746 2.5 5.39139 2.5 5.83341V10.8334C2.5 11.2754 2.67559 11.6994 2.98816 12.0119C3.30072 12.3245 3.72464 12.5001 4.16667 12.5001H5.83333M5.83333 9.16675C5.83333 8.72472 6.00893 8.3008 6.32149 7.98824C6.63405 7.67568 7.05797 7.50008 7.5 7.50008H15.8333C16.2754 7.50008 16.6993 7.67568 17.0118 7.98824C17.3244 8.3008 17.5 8.72472 17.5 9.16675V14.1667C17.5 14.6088 17.3244 15.0327 17.0118 15.3453C16.6993 15.6578 16.2754 15.8334 15.8333 15.8334H7.5C7.05797 15.8334 6.63405 15.6578 6.32149 15.3453C6.00893 15.0327 5.83333 14.6088 5.83333 14.1667V9.16675ZM10 11.6667C10 12.1088 10.1756 12.5327 10.4882 12.8453C10.8007 13.1578 11.2246 13.3334 11.6667 13.3334C12.1087 13.3334 12.5326 13.1578 12.8452 12.8453C13.1577 12.5327 13.3333 12.1088 13.3333 11.6667C13.3333 11.2247 13.1577 10.8008 12.8452 10.4882C12.5326 10.1757 12.1087 10.0001 11.6667 10.0001C11.2246 10.0001 10.8007 10.1757 10.4882 10.4882C10.1756 10.8008 10 11.2247 10 11.6667Z" stroke="white" stroke-width="1.5" stroke-linecap="round" stroke-linejoin="round"/>
</svg>
