<svg width="48" height="48" viewBox="0 0 48 48" fill="none" xmlns="http://www.w3.org/2000/svg">
<rect width="48" height="48" rx="24" fill="#FFD900"/>
<path d="M29 21V19C29 18.4696 28.7893 17.9609 28.4142 17.5858C28.0391 17.2107 27.5304 17 27 17H17C16.4696 17 15.9609 17.2107 15.5858 17.5858C15.2107 17.9609 15 18.4696 15 19V25C15 25.5304 15.2107 26.0391 15.5858 26.4142C15.9609 26.7893 16.4696 27 17 27H19M19 23C19 22.4696 19.2107 21.9609 19.5858 21.5858C19.9609 21.2107 20.4696 21 21 21H31C31.5304 21 32.0391 21.2107 32.4142 21.5858C32.7893 21.9609 33 22.4696 33 23V29C33 29.5304 32.7893 30.0391 32.4142 30.4142C32.0391 30.7893 31.5304 31 31 31H21C20.4696 31 19.9609 30.7893 19.5858 30.4142C19.2107 30.0391 19 29.5304 19 29V23ZM24 26C24 26.5304 24.2107 27.0391 24.5858 27.4142C24.9609 27.7893 25.4696 28 26 28C26.5304 28 27.0391 27.7893 27.4142 27.4142C27.7893 27.0391 28 26.5304 28 26C28 25.4696 27.7893 24.9609 27.4142 24.5858C27.0391 24.2107 26.5304 24 26 24C25.4696 24 24.9609 24.2107 24.5858 24.5858C24.2107 24.9609 24 25.4696 24 26Z" stroke="black" stroke-width="1.5" stroke-linecap="round" stroke-linejoin="round"/>
</svg>
