<svg width="47" height="47" viewBox="0 0 47 47" fill="none" xmlns="http://www.w3.org/2000/svg">
<rect width="47" height="47" rx="5" fill="#0F0F0F"/>
<path d="M26 20H23.5C23.1022 20 22.7206 20.158 22.4393 20.4393C22.158 20.7206 22 21.1022 22 21.5C22 21.8978 22.158 22.2794 22.4393 22.5607C22.7206 22.842 23.1022 23 23.5 23H24.5C24.8978 23 25.2794 23.158 25.5607 23.4393C25.842 23.7206 26 24.1022 26 24.5C26 24.8978 25.842 25.2794 25.5607 25.5607C25.2794 25.842 24.8978 26 24.5 26H22M24 26V27.5M24 18.5V20M17 33V17C17 16.4696 17.2107 15.9609 17.5858 15.5858C17.9609 15.2107 18.4696 15 19 15H29C29.5304 15 30.0391 15.2107 30.4142 15.5858C30.7893 15.9609 31 16.4696 31 17V33L28 31L26 33L24 31L22 33L20 31L17 33Z" stroke="#FFD900" stroke-width="2" stroke-linecap="round" stroke-linejoin="round"/>
</svg>
