<svg width="20" height="21" viewBox="0 0 20 21" fill="none" xmlns="http://www.w3.org/2000/svg">
<path d="M7.49967 14.6667V15.5C7.49967 16.163 7.76307 16.7989 8.23191 17.2678C8.70075 17.7366 9.33663 18 9.99967 18C10.6627 18 11.2986 17.7366 11.7674 17.2678C12.2363 16.7989 12.4997 16.163 12.4997 15.5V14.6667M8.33301 4.66667C8.33301 4.22464 8.5086 3.80072 8.82116 3.48816C9.13372 3.17559 9.55765 3 9.99967 3C10.4417 3 10.8656 3.17559 11.1782 3.48816C11.4907 3.80072 11.6663 4.22464 11.6663 4.66667C12.6233 5.11919 13.4392 5.82361 14.0264 6.70442C14.6136 7.58523 14.95 8.60923 14.9997 9.66667V12.1667C15.0624 12.6848 15.2459 13.1809 15.5354 13.6151C15.8248 14.0493 16.2122 14.4095 16.6663 14.6667H3.33301C3.78712 14.4095 4.17452 14.0493 4.464 13.6151C4.75348 13.1809 4.93696 12.6848 4.99967 12.1667V9.66667C5.04931 8.60923 5.38576 7.58523 5.97297 6.70442C6.56017 5.82361 7.376 5.11919 8.33301 4.66667Z" stroke="white" stroke-width="2" stroke-linecap="round" stroke-linejoin="round"/>
</svg>
