<svg width="48" height="49" viewBox="0 0 48 49" fill="none" xmlns="http://www.w3.org/2000/svg">
<rect y="0.146973" width="48" height="48" rx="24" fill="#181818"/>
<rect x="0.638587" y="0.78556" width="46.7228" height="46.7228" rx="23.3614" stroke="white" stroke-opacity="0.1" stroke-width="1.27717"/>
<path d="M15 22.147H33M19 27.147H19.01M23 27.147H25M15 20.147C15 19.3513 15.3161 18.5883 15.8787 18.0257C16.4413 17.463 17.2044 17.147 18 17.147H30C30.7956 17.147 31.5587 17.463 32.1213 18.0257C32.6839 18.5883 33 19.3513 33 20.147V28.147C33 28.9426 32.6839 29.7057 32.1213 30.2683C31.5587 30.8309 30.7956 31.147 30 31.147H18C17.2044 31.147 16.4413 30.8309 15.8787 30.2683C15.3161 29.7057 15 28.9426 15 28.147V20.147Z" stroke="white" stroke-opacity="0.5" stroke-width="1.5" stroke-linecap="round" stroke-linejoin="round"/>
</svg>
