<svg width="20" height="20" viewBox="0 0 20 20" fill="none" xmlns="http://www.w3.org/2000/svg">
<path d="M6.66683 4.16667H5.00016C4.55814 4.16667 4.13421 4.34226 3.82165 4.65482C3.50909 4.96738 3.3335 5.39131 3.3335 5.83333V15.8333C3.3335 16.2754 3.50909 16.6993 3.82165 17.0118C4.13421 17.3244 4.55814 17.5 5.00016 17.5H9.74766M6.66683 4.16667C6.66683 3.72464 6.84242 3.30072 7.15499 2.98816C7.46755 2.67559 7.89147 2.5 8.3335 2.5H10.0002C10.4422 2.5 10.8661 2.67559 11.1787 2.98816C11.4912 3.30072 11.6668 3.72464 11.6668 4.16667M6.66683 4.16667C6.66683 4.60869 6.84242 5.03262 7.15499 5.34518C7.46755 5.65774 7.89147 5.83333 8.3335 5.83333H10.0002C10.4422 5.83333 10.8661 5.65774 11.1787 5.34518C11.4912 5.03262 11.6668 4.60869 11.6668 4.16667M15.0002 11.6667V15H18.3335M15.0002 11.6667C15.8842 11.6667 16.7321 12.0179 17.3572 12.643C17.9823 13.2681 18.3335 14.1159 18.3335 15M15.0002 11.6667C14.1161 11.6667 13.2683 12.0179 12.6431 12.643C12.018 13.2681 11.6668 14.1159 11.6668 15C11.6668 15.8841 12.018 16.7319 12.6431 17.357C13.2683 17.9821 14.1161 18.3333 15.0002 18.3333C15.8842 18.3333 16.7321 17.9821 17.3572 17.357C17.9823 16.7319 18.3335 15.8841 18.3335 15M15.0002 9.16667V5.83333C15.0002 5.39131 14.8246 4.96738 14.512 4.65482C14.1994 4.34226 13.7755 4.16667 13.3335 4.16667H11.6668M6.66683 9.16667H10.0002M6.66683 12.5H9.16683" stroke="white" stroke-opacity="0.5" stroke-width="1.5" stroke-linecap="round" stroke-linejoin="round"/>
</svg>
