<svg width="55" height="54" viewBox="0 0 55 54" fill="none" xmlns="http://www.w3.org/2000/svg">
<path d="M19.25 27L24.75 32.5L35.75 21.5M2.75 27C2.75 30.2502 3.39018 33.4686 4.63398 36.4714C5.87779 39.4742 7.70086 42.2026 9.99911 44.5009C12.2974 46.7991 15.0258 48.6222 18.0286 49.866C21.0314 51.1098 24.2498 51.75 27.5 51.75C30.7502 51.75 33.9686 51.1098 36.9714 49.866C39.9742 48.6222 42.7026 46.7991 45.0009 44.5009C47.2991 42.2026 49.1222 39.4742 50.366 36.4714C51.6098 33.4686 52.25 30.2502 52.25 27C52.25 23.7498 51.6098 20.5314 50.366 17.5286C49.1222 14.5258 47.2991 11.7974 45.0009 9.49911C42.7026 7.20086 39.9742 5.37779 36.9714 4.13398C33.9686 2.89018 30.7502 2.25 27.5 2.25C24.2498 2.25 21.0314 2.89018 18.0286 4.13398C15.0258 5.37779 12.2974 7.20086 9.99911 9.49911C7.70086 11.7974 5.87779 14.5258 4.63398 17.5286C3.39018 20.5314 2.75 23.7498 2.75 27Z" stroke="#FFD900" stroke-width="4" stroke-linecap="round" stroke-linejoin="round"/>
</svg>
