<svg width="24" height="24" viewBox="0 0 24 24" fill="none" xmlns="http://www.w3.org/2000/svg">
<path d="M15.999 8V6C15.999 5.46957 15.7883 4.96086 15.4132 4.58579C15.0382 4.21071 14.5295 4 13.999 4H5.99902C5.46859 4 4.95988 4.21071 4.58481 4.58579C4.20974 4.96086 3.99902 5.46957 3.99902 6V14C3.99902 14.5304 4.20974 15.0391 4.58481 15.4142C4.95988 15.7893 5.46859 16 5.99902 16H7.99902M7.99902 10C7.99902 9.46957 8.20974 8.96086 8.58481 8.58579C8.95988 8.21071 9.46859 8 9.99902 8H17.999C18.5295 8 19.0382 8.21071 19.4132 8.58579C19.7883 8.96086 19.999 9.46957 19.999 10V18C19.999 18.5304 19.7883 19.0391 19.4132 19.4142C19.0382 19.7893 18.5295 20 17.999 20H9.99902C9.46859 20 8.95988 19.7893 8.58481 19.4142C8.20974 19.0391 7.99902 18.5304 7.99902 18V10Z" stroke="#FFD900" stroke-width="1.2" stroke-linecap="round" stroke-linejoin="round"/>
</svg>
