<svg width="47" height="47" viewBox="0 0 47 47" fill="none" xmlns="http://www.w3.org/2000/svg">
<rect width="47" height="47" rx="5" fill="#0F0F0F"/>
<path d="M15 19C15 18.4696 15.2107 17.9609 15.5858 17.5858C15.9609 17.2107 16.4696 17 17 17H31C31.5304 17 32.0391 17.2107 32.4142 17.5858C32.7893 17.9609 33 18.4696 33 19M15 19V29C15 29.5304 15.2107 30.0391 15.5858 30.4142C15.9609 30.7893 16.4696 31 17 31H31C31.5304 31 32.0391 30.7893 32.4142 30.4142C32.7893 30.0391 33 29.5304 33 29V19M15 19L24 25L33 19" stroke="#FFD900" stroke-width="2" stroke-linecap="round" stroke-linejoin="round"/>
</svg>
