<svg width="24" height="24" viewBox="0 0 24 24" fill="none" xmlns="http://www.w3.org/2000/svg">
<path d="M9.99805 12C9.99805 12.5304 10.2088 13.0391 10.5838 13.4142C10.9589 13.7893 11.4676 14 11.998 14C12.5285 14 13.0372 13.7893 13.4123 13.4142C13.7873 13.0391 13.998 12.5304 13.998 12C13.998 11.4696 13.7873 10.9609 13.4123 10.5858C13.0372 10.2107 12.5285 10 11.998 10C11.4676 10 10.9589 10.2107 10.5838 10.5858C10.2088 10.9609 9.99805 11.4696 9.99805 12Z" stroke="white" stroke-opacity="0.5" stroke-width="2.4" stroke-linecap="round" stroke-linejoin="round"/>
<path d="M20.998 12C18.598 16 15.598 18 11.998 18C8.39805 18 5.39805 16 2.99805 12C5.39805 8 8.39805 6 11.998 6C15.598 6 18.598 8 20.998 12Z" stroke="white" stroke-opacity="0.5" stroke-width="2.4" stroke-linecap="round" stroke-linejoin="round"/>
</svg>
