<svg width="24" height="24" viewBox="0 0 24 24" fill="none" xmlns="http://www.w3.org/2000/svg">
<path d="M12.001 8.99976H12.011M11.001 11.9998H12.001V15.9998H13.001M19.876 6.26983C20.576 6.66783 21.006 7.41283 21.001 8.21783V15.5018C21.001 16.3108 20.558 17.0568 19.843 17.4498L13.093 21.7198C12.7583 21.9036 12.3827 21.9999 12.001 21.9999C11.6192 21.9999 11.2436 21.9036 10.909 21.7198L4.15898 17.4498C3.80914 17.2587 3.5171 16.977 3.31339 16.6343C3.10968 16.2916 3.00178 15.9005 3.00098 15.5018V8.21683C3.00098 7.40783 3.44398 6.66283 4.15898 6.26983L10.909 2.28983C11.2535 2.09987 11.6405 2.00024 12.034 2.00024C12.4274 2.00024 12.8144 2.09987 13.159 2.28983L19.909 6.26983H19.876Z" stroke="white" stroke-opacity="0.5" stroke-width="1.84615" stroke-linecap="round" stroke-linejoin="round"/>
</svg>
