<svg width="2" height="44" viewBox="0 0 2 44" fill="none" xmlns="http://www.w3.org/2000/svg">
<path d="M-1.87959e-06 43C-1.90373e-06 43.5523 0.447713 44 0.999998 44C1.55228 44 2 43.5523 2 43L-1.87959e-06 43ZM0 -4.37114e-08L-9.39796e-08 2.15L2 2.15L2 4.37114e-08L0 -4.37114e-08ZM-2.81939e-07 6.45L-4.69898e-07 10.75L2 10.75L2 6.45L-2.81939e-07 6.45ZM-6.57857e-07 15.05L-8.45816e-07 19.35L2 19.35L2 15.05L-6.57857e-07 15.05ZM-1.03377e-06 23.65L-1.22173e-06 27.95L2 27.95L2 23.65L-1.03377e-06 23.65ZM-1.40969e-06 32.25L-1.59765e-06 36.55L2 36.55L2 32.25L-1.40969e-06 32.25ZM-1.78561e-06 40.85L-1.87959e-06 43L2 43L2 40.85L-1.78561e-06 40.85Z" fill="white"/>
</svg>
