<svg width="47" height="47" viewBox="0 0 47 47" fill="none" xmlns="http://www.w3.org/2000/svg">
<rect width="47" height="47" rx="5" fill="#0F0F0F"/>
<path d="M20 16H22M21 29V29.01M33 18L31 21L33 24L31 27L33 30M15 17C15 16.4696 15.2107 15.9609 15.5858 15.5858C15.9609 15.2107 16.4696 15 17 15H25C25.5304 15 26.0391 15.2107 26.4142 15.5858C26.7893 15.9609 27 16.4696 27 17V31C27 31.5304 26.7893 32.0391 26.4142 32.4142C26.0391 32.7893 25.5304 33 25 33H17C16.4696 33 15.9609 32.7893 15.5858 32.4142C15.2107 32.0391 15 31.5304 15 31V17Z" stroke="#FFD900" stroke-width="2" stroke-linecap="round" stroke-linejoin="round"/>
</svg>
