<svg width="24" height="25" viewBox="0 0 24 25" fill="none" xmlns="http://www.w3.org/2000/svg">
<path d="M3 12.5H4M12 3.5V4.5M20 12.5H21M12 20.5V21.5M5.6 6.1L6.3 6.8M18.4 6.1L17.7 6.8M17.7 18.2L18.4 18.9M6.3 18.2L5.6 18.9M8 12.5C8 13.5609 8.42143 14.5783 9.17157 15.3284C9.92172 16.0786 10.9391 16.5 12 16.5C13.0609 16.5 14.0783 16.0786 14.8284 15.3284C15.5786 14.5783 16 13.5609 16 12.5C16 11.4391 15.5786 10.4217 14.8284 9.67157C14.0783 8.92143 13.0609 8.5 12 8.5C10.9391 8.5 9.92172 8.92143 9.17157 9.67157C8.42143 10.4217 8 11.4391 8 12.5Z" stroke="white" stroke-width="2" stroke-linecap="round" stroke-linejoin="round"/>
</svg>
