<svg width="20" height="20" viewBox="0 0 20 20" fill="none" xmlns="http://www.w3.org/2000/svg">
<path d="M12.0833 4.58333L15.4167 7.91667M10 6.66667L5.83333 2.5L2.5 5.83333L6.66667 10M5.83333 6.66667L4.58333 7.91667M13.3333 10L17.5 14.1667L14.1667 17.5L10 13.3333M13.3333 14.1667L12.0833 15.4167M2.5 17.5002H5.83333L16.6667 6.66692C17.1087 6.22489 17.357 5.62537 17.357 5.00025C17.357 4.37513 17.1087 3.77561 16.6667 3.33358C16.2246 2.89156 15.6251 2.64323 15 2.64323C14.3749 2.64323 13.7754 2.89156 13.3333 3.33358L2.5 14.1669V17.5002Z" stroke="white" stroke-opacity="0.5" stroke-width="2" stroke-linecap="round" stroke-linejoin="round"/>
</svg>
