<svg width="34" height="35" viewBox="0 0 34 35" fill="none" xmlns="http://www.w3.org/2000/svg">
<circle cx="17" cy="17.5" r="17" fill="black"/>
<path d="M14.5002 21.6667V22.5C14.5002 23.163 14.7636 23.7989 15.2324 24.2678C15.7012 24.7366 16.3371 25 17.0002 25C17.6632 25 18.2991 24.7366 18.7679 24.2678C19.2368 23.7989 19.5002 23.163 19.5002 22.5V21.6667M15.3335 11.6667C15.3335 11.2246 15.5091 10.8007 15.8217 10.4882C16.1342 10.1756 16.5581 10 17.0002 10C17.4422 10 17.8661 10.1756 18.1787 10.4882C18.4912 10.8007 18.6668 11.2246 18.6668 11.6667C19.6238 12.1192 20.4397 12.8236 21.0269 13.7044C21.6141 14.5852 21.9505 15.6092 22.0002 16.6667V19.1667C22.0629 19.6848 22.2464 20.1809 22.5358 20.6151C22.8253 21.0493 23.2127 21.4095 23.6668 21.6667H10.3335C10.7876 21.4095 11.175 21.0493 11.4645 20.6151C11.754 20.1809 11.9375 19.6848 12.0002 19.1667V16.6667C12.0498 15.6092 12.3862 14.5852 12.9735 13.7044C13.5607 12.8236 14.3765 12.1192 15.3335 11.6667Z" stroke="white" stroke-width="2" stroke-linecap="round" stroke-linejoin="round"/>
<circle cx="30" cy="6.5" r="4" fill="#FFD900"/>
</svg>
