<svg width="17" height="16" viewBox="0 0 17 16" fill="none" xmlns="http://www.w3.org/2000/svg">
<path d="M8.50073 5.99984H8.5074M7.83407 7.99984H8.50073V10.6665H9.1674M13.7507 4.17989C14.2174 4.44522 14.5041 4.94189 14.5007 5.47856V10.3346C14.5007 10.8739 14.2054 11.3712 13.7287 11.6332L9.22873 14.4799C9.00564 14.6024 8.75524 14.6666 8.50073 14.6666C8.24622 14.6666 7.99583 14.6024 7.77273 14.4799L3.27273 11.6332C3.03951 11.5058 2.84481 11.318 2.70901 11.0895C2.5732 10.8611 2.50127 10.6003 2.50073 10.3346V5.47789C2.50073 4.93856 2.79607 4.44189 3.27273 4.17989L7.77273 1.52656C8.00242 1.39991 8.26044 1.3335 8.52273 1.3335C8.78502 1.3335 9.04304 1.39991 9.27273 1.52656L13.7727 4.17989H13.7507Z" stroke="#FFD900" stroke-linecap="round" stroke-linejoin="round"/>
</svg>
