<svg width="114" height="28" viewBox="0 0 114 28" fill="none" xmlns="http://www.w3.org/2000/svg">
<path d="M0.9 9V1.85H2.93C4.3 1.85 5.43 2.45 5.43 3.94V3.98C5.43 5.5 4.29 6.09 2.93 6.09H1.77V9H0.9ZM1.77 5.4H2.99C4.01 5.4 4.56 4.9 4.56 3.98V3.94C4.56 2.93 3.96 2.55 2.99 2.55H1.77V5.4ZM8.48406 8.4C9.53406 8.4 10.1941 7.61 10.1941 6.43V6.36C10.1941 5.15 9.52406 4.37 8.48406 4.37C7.43406 4.37 6.77406 5.15 6.77406 6.35V6.43C6.77406 7.62 7.42406 8.4 8.48406 8.4ZM8.47406 9.09C6.98406 9.09 5.91406 7.96 5.91406 6.43V6.35C5.91406 4.78 7.00406 3.68 8.48406 3.68C9.96406 3.68 11.0541 4.77 11.0541 6.34V6.42C11.0541 8 9.96406 9.09 8.47406 9.09ZM13.0916 9L11.4816 3.77H12.3816L13.6016 7.98L14.8716 3.77H15.5916L16.7816 7.98L18.0116 3.77H18.8616L17.2316 9H16.3116L15.2216 5.08L14.0016 9H13.0916ZM21.8234 9.09C20.3434 9.09 19.2934 8.05 19.2934 6.44V6.36C19.2934 4.78 20.3034 3.68 21.7434 3.68C22.9534 3.68 24.0934 4.41 24.0934 6.28V6.55H20.1534C20.1934 7.74 20.7634 8.4 21.8334 8.4C22.6434 8.4 23.1134 8.1 23.2234 7.49H24.0534C23.8734 8.54 23.0034 9.09 21.8234 9.09ZM20.1834 5.88H23.2434C23.1634 4.8 22.6034 4.37 21.7434 4.37C20.8934 4.37 20.3234 4.95 20.1834 5.88ZM25.167 9V3.77H25.997V4.71C26.327 4.12 26.777 3.71 27.717 3.68V4.46C26.667 4.51 25.997 4.84 25.997 6.13V9H25.167ZM30.7202 9.09C29.2402 9.09 28.1902 8.05 28.1902 6.44V6.36C28.1902 4.78 29.2002 3.68 30.6402 3.68C31.8502 3.68 32.9902 4.41 32.9902 6.28V6.55H29.0502C29.0902 7.74 29.6602 8.4 30.7302 8.4C31.5402 8.4 32.0102 8.1 32.1202 7.49H32.9502C32.7702 8.54 31.9002 9.09 30.7202 9.09ZM29.0802 5.88H32.1402C32.0602 4.8 31.5002 4.37 30.6402 4.37C29.7902 4.37 29.2202 4.95 29.0802 5.88ZM36.0338 9.09C34.6638 9.09 33.6738 8.12 33.6738 6.49V6.41C33.6738 4.81 34.6738 3.68 36.1138 3.68C36.9838 3.68 37.5238 4.1 37.8238 4.61V1.27H38.6538V9H37.8238V8.1C37.5238 8.61 36.7938 9.09 36.0338 9.09ZM36.1238 8.4C37.0938 8.4 37.8538 7.76 37.8538 6.42V6.34C37.8538 5 37.2138 4.37 36.1938 4.37C35.1538 4.37 34.5338 5.1 34.5338 6.37V6.45C34.5338 7.77 35.2438 8.4 36.1238 8.4ZM45.1798 9.09C44.3298 9.09 43.7098 8.66 43.4098 8.14V9H42.5798V1.27H43.4098V4.65C43.7098 4.14 44.4198 3.68 45.1798 3.68C46.5498 3.68 47.5598 4.68 47.5598 6.31V6.39C47.5598 7.99 46.6198 9.09 45.1798 9.09ZM45.0998 8.4C46.1398 8.4 46.6998 7.7 46.6998 6.43V6.35C46.6998 5.03 45.9698 4.37 45.0898 4.37C44.1198 4.37 43.3798 5.01 43.3798 6.35V6.43C43.3798 7.77 44.0798 8.4 45.0998 8.4ZM49.0217 10.82L50.0117 8.46L47.9617 3.77H48.8517L50.4517 7.52L51.9017 3.77H52.7517L49.8617 10.82H49.0217ZM54.0694 9.05C53.7194 9.05 53.4294 8.77 53.4294 8.41C53.4294 8.05 53.7194 7.77 54.0694 7.77C54.4194 7.77 54.7094 8.05 54.7094 8.41C54.7094 8.77 54.4194 9.05 54.0694 9.05ZM54.0694 6.08C53.7194 6.08 53.4294 5.8 53.4294 5.44C53.4294 5.08 53.7194 4.8 54.0694 4.8C54.4194 4.8 54.7094 5.08 54.7094 5.44C54.7094 5.8 54.4194 6.08 54.0694 6.08Z" fill="white" fill-opacity="0.7"/>
<path d="M0 18.724V17H16.1456V18.724H8.79941V27.9848H7.32437V18.724H0ZM18.449 17H19.924V25.0631C19.924 25.2233 19.9531 25.3682 20.0112 25.5208C20.0693 25.6657 20.142 25.7954 20.2437 25.9022C20.3455 26.009 20.4545 26.1006 20.578 26.1692C20.7015 26.2379 20.8323 26.2684 20.9704 26.2684H32.0659C32.3711 26.2684 32.6181 26.1463 32.8143 25.9099C33.0105 25.6657 33.1122 25.3835 33.1122 25.0631V17H34.5873V25.0631C34.5873 25.4674 34.5146 25.8565 34.3766 26.2074C34.2385 26.5659 34.0496 26.871 33.8171 27.1304C33.5846 27.3897 33.3157 27.5957 33.0105 27.7483C32.7053 27.9008 32.3856 27.9771 32.0586 27.9771H20.9631C20.6361 27.9771 20.3164 27.9008 20.0185 27.7483C19.7133 27.5957 19.4517 27.3897 19.2119 27.1304C18.9794 26.871 18.7905 26.5583 18.6452 26.2074C18.4998 25.8488 18.4344 25.4674 18.4344 25.0631V17H18.449ZM50.6094 26.276V27.9848H37.4139V17H38.8889V26.276H50.6021H50.6094ZM52.9128 17H54.3878V25.0631C54.3878 25.2233 54.4169 25.3682 54.475 25.5208C54.5331 25.6657 54.6058 25.7954 54.7075 25.9022C54.8092 26.009 54.9182 26.1006 55.0418 26.1692C55.1653 26.2379 55.2961 26.2684 55.4341 26.2684H66.5297C66.8349 26.2684 67.0819 26.1463 67.2781 25.9099C67.4743 25.6657 67.576 25.3835 67.576 25.0631V17H69.0511V25.0631C69.0511 25.4674 68.9784 25.8565 68.8403 26.2074C68.7023 26.5659 68.5134 26.871 68.2808 27.1304C68.0483 27.3897 67.7795 27.5957 67.4743 27.7483C67.1691 27.9008 66.8494 27.9771 66.5224 27.9771H55.4269C55.0999 27.9771 54.7802 27.9008 54.4822 27.7483C54.1771 27.5957 53.9155 27.3897 53.6757 27.1304C53.4432 26.871 53.2543 26.5583 53.1089 26.2074C52.9636 25.8488 52.8982 25.4674 52.8982 25.0631V17H52.9128ZM71.8776 21.6151H85.2911C85.4655 21.6151 85.6326 21.577 85.7925 21.5007C85.9523 21.4244 86.0904 21.3176 86.2066 21.1879C86.3229 21.0583 86.4174 20.9057 86.4828 20.7226C86.5554 20.5472 86.5845 20.3564 86.5845 20.1581C86.5845 19.9598 86.5482 19.7691 86.4828 19.5936C86.4101 19.4182 86.3229 19.258 86.2066 19.1283C86.0904 18.9986 85.9523 18.8994 85.7925 18.8232C85.6326 18.7469 85.4655 18.7164 85.2911 18.7164H71.8776V17.0076H85.2766C85.6471 17.0076 85.9959 17.0839 86.3229 17.2441C86.6499 17.4043 86.9405 17.6179 87.1876 17.8925C87.4346 18.1671 87.6381 18.5028 87.7834 18.8918C87.9287 19.2809 88.0014 19.7004 88.0014 20.1505C88.0014 20.6082 87.9287 21.0354 87.7907 21.4244C87.6454 21.8135 87.4492 22.1491 87.2021 22.4313C86.9551 22.7136 86.6572 22.9348 86.3302 23.095C85.9959 23.2552 85.6471 23.3391 85.2766 23.3391H73.3527V27.9695H71.8776V21.6304V21.6151ZM94.0324 17.0153C94.185 17.2136 94.4538 17.5569 94.8317 18.0527C95.2095 18.5409 95.6455 19.1207 96.1469 19.7843C96.6482 20.448 97.1859 21.1651 97.7672 21.9355C98.3485 22.706 98.9153 23.4612 99.4821 24.2087C100.049 24.9563 100.579 25.6657 101.073 26.3294C101.567 26.9931 101.989 27.5499 102.323 28H100.354C100.347 27.9924 100.245 27.8627 100.063 27.6186C99.8744 27.3745 99.6347 27.0541 99.3367 26.665C99.0388 26.276 98.7046 25.8259 98.3267 25.3301C97.9489 24.8343 97.5638 24.3232 97.1714 23.7968C96.779 23.2705 96.3939 22.767 96.0161 22.2635C95.6382 21.7677 95.304 21.3252 95.0133 20.9362C94.7227 20.5472 94.4829 20.2344 94.3012 19.9979C94.1196 19.7538 94.0324 19.6394 94.0324 19.6394L89.0187 26.2913H97.0697L98.3631 28H85.7416L94.0324 17.0153ZM100.507 17L105.964 21.4549L111.457 17H114L106.719 22.9501V27.9848H105.244V22.9501L97.9198 17H100.514H100.507Z" fill="#FFCC00"/>
</svg>
