<svg width="123" height="16" viewBox="0 0 123 16" fill="none" xmlns="http://www.w3.org/2000/svg">
<path d="M0 6.73623H19.2055C19.4552 6.73623 19.6933 6.67826 19.9198 6.56812C20.1463 6.45217 20.3496 6.30145 20.5122 6.11594C20.6806 5.92464 20.8142 5.70435 20.9129 5.44348C21.0116 5.18841 21.0639 4.91014 21.0639 4.62609C21.0639 4.33623 21.0116 4.06377 20.9129 3.8087C20.8142 3.55362 20.6806 3.32754 20.5122 3.13623C20.3438 2.94493 20.1463 2.8 19.9198 2.68985C19.6933 2.58551 19.4552 2.53333 19.2055 2.53333H0V0.0521739H19.1881C19.7224 0.0521739 20.2218 0.168116 20.6922 0.394203C21.1626 0.62029 21.575 0.93913 21.935 1.33913C22.2951 1.73913 22.5797 2.22029 22.7888 2.78261C22.9978 3.34493 23.1024 3.94783 23.1024 4.6029C23.1024 5.26957 22.9978 5.88406 22.7946 6.44638C22.5913 7.0087 22.3067 7.49565 21.9525 7.90145C21.5924 8.31304 21.1743 8.63188 20.698 8.86957C20.2218 9.10725 19.7166 9.22319 19.1881 9.22319H2.11394V15.9362H0V6.74203V6.73623ZM24.7749 0.0463768H26.8889V11.7449C26.8889 11.971 26.9295 12.1913 27.0108 12.4058C27.0921 12.6203 27.2025 12.8058 27.3419 12.9623C27.487 13.1188 27.6438 13.2522 27.8239 13.3507C28.0039 13.4493 28.1898 13.4957 28.3872 13.4957H44.2708C44.7064 13.4957 45.0606 13.3217 45.3452 12.9739C45.6298 12.6261 45.775 12.2145 45.775 11.7449V0.0463768H47.8889V11.7449C47.8889 12.3362 47.7902 12.8928 47.5927 13.4087C47.3953 13.9246 47.1281 14.371 46.7971 14.7536C46.4661 15.1304 46.077 15.4319 45.6356 15.6522C45.1942 15.8725 44.7412 15.9826 44.2708 15.9826H28.3872C27.9168 15.9826 27.4638 15.8725 27.0341 15.6522C26.5985 15.4319 26.2152 15.1304 25.8842 14.7536C25.5473 14.3768 25.2802 13.9246 25.0769 13.4087C24.8737 12.8928 24.7691 12.342 24.7691 11.7449V0.0463768H24.7749ZM50.1248 2.57391V0.0927536H69.3129C69.9169 0.0927536 70.4686 0.226087 70.9622 0.492754C71.4559 0.75942 71.874 1.11304 72.2166 1.55942C72.5593 2.0058 72.8148 2.51014 72.9949 3.06667C73.1749 3.62899 73.262 4.1971 73.262 4.78261C73.262 5.36812 73.1575 5.94203 72.9542 6.51014C72.7509 7.07246 72.4373 7.57681 72.0192 8.01739C71.6475 8.42899 71.241 8.73043 70.8054 8.93333C70.364 9.13623 69.8704 9.24638 69.3129 9.26377H69.2374L73.9705 16H71.4675L66.5311 9.28696H52.262V16H50.148V6.8058H69.5626C70.0098 6.73043 70.3931 6.49275 70.7125 6.09855C71.0319 5.70435 71.1945 5.23478 71.1945 4.68986C71.1945 4.14493 71.0319 3.66956 70.7125 3.26957C70.3931 2.86957 70.0098 2.63768 69.5626 2.57391H50.1306H50.1248ZM74.7139 13.4493H93.902C94.1517 13.4493 94.384 13.3913 94.6047 13.2812C94.8254 13.1652 95.017 13.0145 95.1796 12.8232C95.3422 12.6319 95.47 12.4116 95.5629 12.1507C95.6558 11.8957 95.7023 11.6174 95.7023 11.3333C95.7023 10.742 95.5281 10.2435 95.1854 9.84348C94.837 9.44348 94.4246 9.24058 93.9426 9.24058H78.6107C78.1287 9.24058 77.6525 9.12464 77.1937 8.89855C76.7291 8.67246 76.3168 8.35362 75.9509 7.94203C75.585 7.53043 75.2946 7.04927 75.0681 6.49855C74.8475 5.94203 74.7371 5.33913 74.7371 4.68986V4.5971C74.7371 3.95942 74.8475 3.36232 75.0623 2.81159C75.2772 2.25507 75.5676 1.77391 75.9277 1.36812C76.2877 0.956522 76.7001 0.637681 77.1705 0.4C77.6409 0.162319 78.1345 0.0463768 78.6572 0.0463768H97.8337V2.52754H78.6804C78.4191 2.51014 78.181 2.55652 77.9661 2.65507C77.7512 2.75362 77.5596 2.90435 77.3912 3.08985C77.2227 3.28116 77.095 3.50145 77.0021 3.76232C76.9091 4.01739 76.8627 4.29565 76.8627 4.58551C76.8627 4.87536 76.9091 5.14783 77.0021 5.4087C77.095 5.66377 77.2227 5.89565 77.3853 6.08116C77.548 6.27246 77.7338 6.42899 77.9603 6.53913C78.181 6.65507 78.4191 6.70725 78.663 6.70725H93.9252C94.4188 6.70725 94.9009 6.82899 95.3713 7.07246C95.8417 7.31594 96.2598 7.64058 96.6257 8.05217C96.9858 8.46377 97.282 8.94493 97.5026 9.50725C97.7233 10.0696 97.8395 10.6667 97.8395 11.3043C97.8395 11.942 97.7349 12.5391 97.5317 13.0899C97.3284 13.6464 97.0438 14.1333 96.6896 14.5565C96.3295 14.9797 95.9172 15.3159 95.441 15.5594C94.9647 15.8029 94.4537 15.9246 93.9078 15.9246H74.7313V13.4435L74.7139 13.4493ZM99.5062 13.4725H122.667V15.9768H99.5062V13.4725ZM122.667 0.0231884V2.50435H99.5062V0L122.667 0.0231884ZM121.552 6.75942V9.21739H99.5062V6.75942H121.552Z" fill="#FFCC00"/>
</svg>
