<svg width="20" height="20" viewBox="0 0 20 20" fill="none" xmlns="http://www.w3.org/2000/svg">
<path d="M10.0001 10C9.77907 10 9.56711 9.9122 9.41083 9.75592C9.25455 9.59964 9.16675 9.38768 9.16675 9.16667C9.16675 8.94565 9.25455 8.73369 9.41083 8.57741C9.56711 8.42113 9.77907 8.33333 10.0001 8.33333C10.2211 8.33333 10.4331 8.42113 10.5893 8.57741C10.7456 8.73369 10.8334 8.94565 10.8334 9.16667C10.8334 9.38768 10.7456 9.59964 10.5893 9.75592C10.4331 9.9122 10.2211 10 10.0001 10ZM10.0001 10V12.0833M10.0008 2.5C11.9473 4.22215 14.4878 5.11881 17.0841 5C17.4621 6.28585 17.5777 7.63456 17.4242 8.96598C17.2706 10.2974 16.851 11.5844 16.1903 12.7504C15.5295 13.9165 14.6411 14.9378 13.5778 15.7537C12.5145 16.5696 11.2981 17.1635 10.0008 17.5C8.70343 17.1635 7.48699 16.5696 6.42371 15.7537C5.36043 14.9378 4.47202 13.9165 3.81125 12.7504C3.15049 11.5844 2.73087 10.2974 2.57732 8.96598C2.42377 7.63456 2.53943 6.28585 2.91742 5C5.5137 5.11881 8.05423 4.22215 10.0008 2.5Z" stroke="white" stroke-opacity="0.5" stroke-width="2" stroke-linecap="round" stroke-linejoin="round"/>
</svg>
