<svg width="12" height="16" viewBox="0 0 12 16" fill="none" xmlns="http://www.w3.org/2000/svg">
<path d="M1.5 14.75V13.25C1.5 12.4544 1.81607 11.6913 2.37868 11.1287C2.94129 10.5661 3.70435 10.25 4.5 10.25H7.5C8.29565 10.25 9.05871 10.5661 9.62132 11.1287C10.1839 11.6913 10.5 12.4544 10.5 13.25V14.75M3 4.25C3 5.04565 3.31607 5.80871 3.87868 6.37132C4.44129 6.93393 5.20435 7.25 6 7.25C6.79565 7.25 7.55871 6.93393 8.12132 6.37132C8.68393 5.80871 9 5.04565 9 4.25C9 3.45435 8.68393 2.69129 8.12132 2.12868C7.55871 1.56607 6.79565 1.25 6 1.25C5.20435 1.25 4.44129 1.56607 3.87868 2.12868C3.31607 2.69129 3 3.45435 3 4.25Z" stroke="white" stroke-opacity="0.5" stroke-width="1.5" stroke-linecap="round" stroke-linejoin="round"/>
</svg>
