<svg width="36" height="36" viewBox="0 0 36 36" fill="none" xmlns="http://www.w3.org/2000/svg">
<g clip-path="url(#clip0_1_604)">
<mask id="mask0_1_604" style="mask-type:luminance" maskUnits="userSpaceOnUse" x="0" y="0" width="36" height="36">
<path d="M0.5 0.5H35.497V35.502H0.5V0.5Z" fill="white"/>
</mask>
<g mask="url(#mask0_1_604)">
<path fill-rule="evenodd" clip-rule="evenodd" d="M-0.867188 0.5H51.6333V35.502H-0.867188V0.5Z" fill="white"/>
<path fill-rule="evenodd" clip-rule="evenodd" d="M-0.867188 0.5H51.6333V17.9985H-0.867188V0.5Z" fill="#DF0000"/>
<path fill-rule="evenodd" clip-rule="evenodd" d="M11.242 3.43368C9.86045 3.7297 8.62281 4.49214 7.73699 5.59293C6.85117 6.69371 6.37114 8.0658 6.37751 9.47873C6.38388 10.8917 6.87627 12.2594 7.77198 13.3521C8.66769 14.4449 9.91216 15.1961 11.2964 15.4796C10.3644 15.7524 9.38174 15.8048 8.426 15.6329C7.47027 15.4609 6.56757 15.0692 5.78913 14.4886C5.01069 13.9081 4.37779 13.1546 3.94038 12.2876C3.50297 11.4206 3.273 10.4638 3.26862 9.49275C3.26424 8.52167 3.48557 7.56286 3.91514 6.69196C4.34472 5.82106 4.97079 5.06189 5.74397 4.47435C6.51714 3.88681 7.41627 3.48696 8.37041 3.30636C9.32455 3.12576 10.3076 3.16935 11.242 3.43368Z" fill="white"/>
<path fill-rule="evenodd" clip-rule="evenodd" d="M9.11119 8.52079L8.17773 7.83923L9.33837 7.82935L9.69398 6.72797L10.0644 7.82935H11.2201L10.2916 8.52079L10.6472 9.62217L9.70385 8.94554L8.76546 9.62711L9.11119 8.52079ZM10.3953 12.3188L9.45691 11.6372L10.6175 11.6274L10.9781 10.526L11.3436 11.6224H12.5042L11.5658 12.3139L11.9264 13.4152L10.988 12.7435L10.0496 13.4251L10.3953 12.3188ZM14.6576 12.2892L13.7192 11.6076L14.8749 11.5977L15.2354 10.4964L15.6009 11.5977H16.7665L15.833 12.2892L16.1936 13.3905L15.2502 12.7139L14.3118 13.3955L14.6576 12.2892ZM15.9269 8.52573L14.9885 7.84416L16.1491 7.83429L16.5047 6.73291L16.8751 7.82935H18.0308L17.1023 8.52079L17.4579 9.62217L16.5146 8.95048L15.5762 9.63204L15.9269 8.52573ZM12.5536 6.03159L11.6152 5.35002L12.7758 5.34014L13.1364 4.23877L13.5019 5.34014H14.6625L13.7241 6.03159L14.0847 7.12802L13.1463 6.45633L12.2079 7.1379L12.5536 6.03159Z" fill="white"/>
</g>
</g>
<defs>
<clipPath id="clip0_1_604">
<rect x="0.5" y="0.5" width="35" height="35" rx="17.5" fill="white"/>
</clipPath>
</defs>
</svg>
