<svg width="67" height="67" viewBox="0 0 67 67" fill="none" xmlns="http://www.w3.org/2000/svg">
<path d="M25.25 33.5L30.75 39L41.75 28M8.75 33.5C8.75 36.7502 9.39018 39.9686 10.634 42.9714C11.8778 45.9742 13.7009 48.7026 15.9991 51.0009C18.2974 53.2991 21.0258 55.1222 24.0286 56.366C27.0314 57.6098 30.2498 58.25 33.5 58.25C36.7502 58.25 39.9686 57.6098 42.9714 56.366C45.9742 55.1222 48.7026 53.2991 51.0009 51.0009C53.2991 48.7026 55.1222 45.9742 56.366 42.9714C57.6098 39.9686 58.25 36.7502 58.25 33.5C58.25 30.2498 57.6098 27.0314 56.366 24.0286C55.1222 21.0258 53.2991 18.2974 51.0009 15.9991C48.7026 13.7009 45.9742 11.8778 42.9714 10.634C39.9686 9.39018 36.7502 8.75 33.5 8.75C30.2498 8.75 27.0314 9.39018 24.0286 10.634C21.0258 11.8778 18.2974 13.7009 15.9991 15.9991C13.7009 18.2974 11.8778 21.0258 10.634 24.0286C9.39018 27.0314 8.75 30.2498 8.75 33.5Z" stroke="#FFD900" stroke-width="4" stroke-linecap="round" stroke-linejoin="round"/>
</svg>
