<svg width="18" height="18" viewBox="0 0 18 18" fill="none" xmlns="http://www.w3.org/2000/svg">
<mask id="mask0_1_1483" style="mask-type:alpha" maskUnits="userSpaceOnUse" x="0" y="0" width="18" height="18">
<circle cx="9" cy="9" r="9" fill="#D9D9D9"/>
</mask>
<g mask="url(#mask0_1_1483)">
<rect x="-5.14355" y="-0.644409" width="27.6429" height="19.2857" rx="1.2" fill="white"/>
<mask id="mask1_1_1483" style="mask-type:luminance" maskUnits="userSpaceOnUse" x="-6" y="-1" width="29" height="20">
<rect x="-5.14355" y="-0.644409" width="27.6429" height="19.2857" rx="1.2" fill="white"/>
</mask>
<g mask="url(#mask1_1_1483)">
<path fill-rule="evenodd" clip-rule="evenodd" d="M22.4993 -0.644409H-5.14355V0.641305H22.4993V-0.644409ZM22.4993 1.92705H-5.14355V3.21277H22.4993V1.92705ZM-5.14355 4.49844H22.4993V5.78415H-5.14355V4.49844ZM22.4993 7.0699H-5.14355V8.35561H22.4993V7.0699ZM-5.14355 9.64129H22.4993V10.927H-5.14355V9.64129ZM22.4993 12.2127H-5.14355V13.4985H22.4993V12.2127ZM-5.14355 14.7841H22.4993V16.0698H-5.14355V14.7841ZM22.4993 17.3556H-5.14355V18.6413H22.4993V17.3556Z" fill="#D02F44"/>
<rect x="-5.14355" y="-0.644409" width="11.8469" height="9" fill="#46467F"/>
<g filter="url(#filter0_d_1_1483)">
<path fill-rule="evenodd" clip-rule="evenodd" d="M-2.51072 1.28409C-2.51072 1.63913 -2.80539 1.92695 -3.16889 1.92695C-3.53238 1.92695 -3.82705 1.63913 -3.82705 1.28409C-3.82705 0.929052 -3.53238 0.641235 -3.16889 0.641235C-2.80539 0.641235 -2.51072 0.929052 -2.51072 1.28409ZM0.121796 1.28414C0.121796 1.63918 -0.172873 1.927 -0.536367 1.927C-0.899861 1.927 -1.19453 1.63918 -1.19453 1.28414C-1.19453 0.929101 -0.899861 0.641284 -0.536367 0.641284C-0.172873 0.641284 0.121796 0.929101 0.121796 1.28414ZM2.09625 1.927C2.45974 1.927 2.75441 1.63918 2.75441 1.28414C2.75441 0.929101 2.45974 0.641284 2.09625 0.641284C1.73276 0.641284 1.43809 0.929101 1.43809 1.28414C1.43809 1.63918 1.73276 1.927 2.09625 1.927ZM5.38718 1.28414C5.38718 1.63918 5.09251 1.927 4.72901 1.927C4.36552 1.927 4.07085 1.63918 4.07085 1.28414C4.07085 0.929101 4.36552 0.641284 4.72901 0.641284C5.09251 0.641284 5.38718 0.929101 5.38718 1.28414ZM-1.85268 3.21269C-1.48918 3.21269 -1.19451 2.92488 -1.19451 2.56983C-1.19451 2.21479 -1.48918 1.92698 -1.85268 1.92698C-2.21617 1.92698 -2.51084 2.21479 -2.51084 2.56983C-2.51084 2.92488 -2.21617 3.21269 -1.85268 3.21269ZM1.4381 2.56983C1.4381 2.92488 1.14343 3.21269 0.779941 3.21269C0.416448 3.21269 0.121778 2.92488 0.121778 2.56983C0.121778 2.21479 0.416448 1.92698 0.779941 1.92698C1.14343 1.92698 1.4381 2.21479 1.4381 2.56983ZM3.4127 3.21269C3.7762 3.21269 4.07087 2.92488 4.07087 2.56983C4.07087 2.21479 3.7762 1.92698 3.4127 1.92698C3.04921 1.92698 2.75454 2.21479 2.75454 2.56983C2.75454 2.92488 3.04921 3.21269 3.4127 3.21269ZM5.38718 3.8556C5.38718 4.21064 5.09251 4.49846 4.72901 4.49846C4.36552 4.49846 4.07085 4.21064 4.07085 3.8556C4.07085 3.50056 4.36552 3.21274 4.72901 3.21274C5.09251 3.21274 5.38718 3.50056 5.38718 3.8556ZM2.09625 4.49846C2.45974 4.49846 2.75441 4.21064 2.75441 3.8556C2.75441 3.50056 2.45974 3.21274 2.09625 3.21274C1.73276 3.21274 1.43809 3.50056 1.43809 3.8556C1.43809 4.21064 1.73276 4.49846 2.09625 4.49846ZM0.121796 3.8556C0.121796 4.21064 -0.172873 4.49846 -0.536367 4.49846C-0.899861 4.49846 -1.19453 4.21064 -1.19453 3.8556C-1.19453 3.50056 -0.899861 3.21274 -0.536367 3.21274C-0.172873 3.21274 0.121796 3.50056 0.121796 3.8556ZM-3.16898 4.49846C-2.80549 4.49846 -2.51082 4.21064 -2.51082 3.8556C-2.51082 3.50056 -2.80549 3.21274 -3.16898 3.21274C-3.53248 3.21274 -3.82715 3.50056 -3.82715 3.8556C-3.82715 4.21064 -3.53248 4.49846 -3.16898 4.49846ZM-1.19451 5.1413C-1.19451 5.49634 -1.48918 5.78415 -1.85268 5.78415C-2.21617 5.78415 -2.51084 5.49634 -2.51084 5.1413C-2.51084 4.78625 -2.21617 4.49844 -1.85268 4.49844C-1.48918 4.49844 -1.19451 4.78625 -1.19451 5.1413ZM0.779941 5.78415C1.14343 5.78415 1.4381 5.49634 1.4381 5.1413C1.4381 4.78625 1.14343 4.49844 0.779941 4.49844C0.416448 4.49844 0.121778 4.78625 0.121778 5.1413C0.121778 5.49634 0.416448 5.78415 0.779941 5.78415ZM4.07087 5.1413C4.07087 5.49634 3.7762 5.78415 3.4127 5.78415C3.04921 5.78415 2.75454 5.49634 2.75454 5.1413C2.75454 4.78625 3.04921 4.49844 3.4127 4.49844C3.7762 4.49844 4.07087 4.78625 4.07087 5.1413ZM4.72901 7.06985C5.09251 7.06985 5.38718 6.78203 5.38718 6.42699C5.38718 6.07195 5.09251 5.78413 4.72901 5.78413C4.36552 5.78413 4.07085 6.07195 4.07085 6.42699C4.07085 6.78203 4.36552 7.06985 4.72901 7.06985ZM2.75441 6.42699C2.75441 6.78203 2.45974 7.06985 2.09625 7.06985C1.73276 7.06985 1.43809 6.78203 1.43809 6.42699C1.43809 6.07195 1.73276 5.78413 2.09625 5.78413C2.45974 5.78413 2.75441 6.07195 2.75441 6.42699ZM-0.536367 7.06985C-0.172873 7.06985 0.121796 6.78203 0.121796 6.42699C0.121796 6.07195 -0.172873 5.78413 -0.536367 5.78413C-0.899861 5.78413 -1.19453 6.07195 -1.19453 6.42699C-1.19453 6.78203 -0.899861 7.06985 -0.536367 7.06985ZM-2.51082 6.42699C-2.51082 6.78203 -2.80549 7.06985 -3.16898 7.06985C-3.53248 7.06985 -3.82715 6.78203 -3.82715 6.42699C-3.82715 6.07195 -3.53248 5.78413 -3.16898 5.78413C-2.80549 5.78413 -2.51082 6.07195 -2.51082 6.42699Z" fill="url(#paint0_linear_1_1483)"/>
</g>
</g>
</g>
<defs>
<filter id="filter0_d_1_1483" x="-3.82715" y="0.641235" width="9.21436" height="7.02859" filterUnits="userSpaceOnUse" color-interpolation-filters="sRGB">
<feFlood flood-opacity="0" result="BackgroundImageFix"/>
<feColorMatrix in="SourceAlpha" type="matrix" values="0 0 0 0 0 0 0 0 0 0 0 0 0 0 0 0 0 0 127 0" result="hardAlpha"/>
<feOffset dy="0.6"/>
<feColorMatrix type="matrix" values="0 0 0 0 0 0 0 0 0 0 0 0 0 0 0 0 0 0 0.06 0"/>
<feBlend mode="normal" in2="BackgroundImageFix" result="effect1_dropShadow_1_1483"/>
<feBlend mode="normal" in="SourceGraphic" in2="effect1_dropShadow_1_1483" result="shape"/>
</filter>
<linearGradient id="paint0_linear_1_1483" x1="-3.82715" y1="0.641235" x2="-3.82715" y2="7.06981" gradientUnits="userSpaceOnUse">
<stop stop-color="white"/>
<stop offset="1" stop-color="#F0F0F0"/>
</linearGradient>
</defs>
</svg>
