<svg width="48" height="49" viewBox="0 0 48 49" fill="none" xmlns="http://www.w3.org/2000/svg">
<rect y="0.146973" width="48" height="48" rx="24" fill="#181818"/>
<rect x="0.638587" y="0.78556" width="46.7228" height="46.7228" rx="23.3614" stroke="white" stroke-opacity="0.1" stroke-width="1.27717"/>
<path d="M24 24.147C23.7348 24.147 23.4804 24.0416 23.2929 23.8541C23.1054 23.6665 23 23.4122 23 23.147C23 22.8818 23.1054 22.6274 23.2929 22.4399C23.4804 22.2523 23.7348 22.147 24 22.147C24.2652 22.147 24.5196 22.2523 24.7071 22.4399C24.8946 22.6274 25 22.8818 25 23.147C25 23.4122 24.8946 23.6665 24.7071 23.8541C24.5196 24.0416 24.2652 24.147 24 24.147ZM24 24.147V26.647M24.0008 15.147C26.3366 17.2135 29.3853 18.2895 32.5008 18.147C32.9544 19.69 33.0932 21.3084 32.9089 22.9062C32.7247 24.5039 32.2211 26.0482 31.4282 27.4475C30.6353 28.8468 29.5692 30.0724 28.2933 31.0515C27.0173 32.0306 25.5576 32.7432 24.0008 33.147C22.444 32.7432 20.9843 32.0306 19.7084 31.0515C18.4324 30.0724 17.3663 28.8468 16.5734 27.4475C15.7805 26.0482 15.2769 24.5039 15.0927 22.9062C14.9084 21.3084 15.0472 19.69 15.5008 18.147C18.6163 18.2895 21.665 17.2135 24.0008 15.147Z" stroke="white" stroke-opacity="0.5" stroke-width="1.5" stroke-linecap="round" stroke-linejoin="round"/>
</svg>
